<?xml version="1.0" encoding="utf-8"?>
<!-- Generator: Adobe Illustrator 16.0.0, SVG Export Plug-In . SVG Version: 6.00 Build 0)  -->
<!DOCTYPE svg PUBLIC "-//W3C//DTD SVG 1.1//EN" "http://www.w3.org/Graphics/SVG/1.1/DTD/svg11.dtd">
<svg version="1.1" id="Layer_1" xmlns="http://www.w3.org/2000/svg" xmlns:xlink="http://www.w3.org/1999/xlink" x="0px" y="0px"
	 width="80px" height="100px" viewBox="0 0 80 100" enable-background="new 0 0 80 100" xml:space="preserve">
<g>
	<g id="Logo_Mark_FullColor">
		<g id="Logo_Mark_Positive">
			<path id="Path_6" d="M63.255,76.697c0.021,2.191-0.253,4.375-0.812,6.494h-9.08c0.074-0.752,0.111-1.539,0.111-2.361
				c0.111-4.225-1.612-8.291-4.727-11.148c-3.819-3.438-7.984-6.47-12.427-9.05c-3.444-2.134-6.67-4.309-9.678-6.526
				c-2.872-2.067-5.317-4.672-7.2-7.668c-1.872-3.19-2.806-6.843-2.693-10.54c-0.153-3.802,0.864-7.559,2.916-10.764
				c1.89-2.785,4.543-4.965,7.641-6.28c3.196-1.37,6.64-2.066,10.117-2.045c2.843-0.137,5.686,0.295,8.359,1.271
				c1.773,0.772,3.467,1.715,5.059,2.815c0.879,0.516,1.594,0.901,2.143,1.156c0.498,0.246,1.044,0.379,1.6,0.388
				c1.175,0,1.98-1.619,2.418-4.857h2.477c-0.074,1.243-0.164,2.729-0.271,4.459s-0.181,4.009-0.221,6.836
				c-0.037,2.828-0.055,6.557-0.055,11.187h-2.486c-0.21-3.487-0.99-6.917-2.309-10.152c-1.217-3.099-3.204-5.834-5.775-7.949
				c-2.537-2.075-5.861-3.111-9.973-3.109c-3.546-0.127-7,1.14-9.622,3.53c-2.545,2.397-3.926,5.78-3.783,9.273
				c-0.103,2.981,0.786,5.913,2.529,8.334c1.876,2.408,4.166,4.464,6.761,6.072c2.823,1.809,5.885,3.742,9.185,5.799
				c3.517,2.149,6.912,4.488,10.173,7.008c2.789,2.115,5.176,4.714,7.046,7.672C62.471,69.618,63.363,73.137,63.255,76.697z"/>
			<path id="Path_7" fill="#E50E0E" d="M49.252,82.771v0.42H16.551v-0.42c-0.001-0.623,0.034-1.244,0.105-1.863
				c0.986-8.976,9.062-15.452,18.037-14.466c8.318,0.914,14.603,7.962,14.563,16.329H49.252z"/>
		</g>
	</g>
</g>
</svg>
