<?xml version="1.0" encoding="utf-8"?>
<!-- Generator: Adobe Illustrator 16.0.0, SVG Export Plug-In . SVG Version: 6.00 Build 0)  -->
<!DOCTYPE svg PUBLIC "-//W3C//DTD SVG 1.1//EN" "http://www.w3.org/Graphics/SVG/1.1/DTD/svg11.dtd">
<svg version="1.1" id="Layer_1" xmlns="http://www.w3.org/2000/svg" xmlns:xlink="http://www.w3.org/1999/xlink" x="0px" y="0px"
	 width="131.75px" height="45.682px" viewBox="26.5 17.034 131.75 45.682" enable-background="new 26.5 17.034 131.75 45.682"
	 xml:space="preserve">
<g transform="translate(-575 -25)">
	<path fill="#010101" d="M627.452,75.321c0,1.113-0.132,2.227-0.397,3.344h-4.51c0-0.42,0-0.837,0-1.256
		c0-2.228-0.794-4.317-2.386-5.709c-1.856-1.813-3.979-3.344-6.1-4.596c-1.725-1.116-3.316-2.23-4.775-3.343
		c-1.458-1.115-2.652-2.368-3.58-3.9c-0.929-1.532-1.326-3.343-1.326-5.431c0-2.229,0.529-4.041,1.458-5.571
		c0.928-1.393,2.255-2.507,3.713-3.204c1.591-0.697,3.314-1.114,4.906-1.114c1.857,0,3.184,0.278,4.111,0.696
		c0.929,0.417,1.724,0.836,2.52,1.393c0.398,0.279,0.796,0.417,1.061,0.557s0.531,0.14,0.795,0.14c0.531,0,0.929-0.836,1.194-2.507
		h1.194c0,0.696-0.133,1.393-0.133,2.228s-0.133,2.09-0.133,3.482c0,1.393,0,3.343,0,5.71h-1.193
		c-0.133-1.81-0.53-3.621-1.194-5.153c-0.531-1.532-1.592-3.064-2.784-4.039c-1.194-1.114-2.918-1.532-4.908-1.532
		c-1.856,0-3.448,0.558-4.773,1.811c-1.194,1.254-1.856,2.786-1.856,4.735c0,1.671,0.397,3.064,1.193,4.318
		c0.927,1.253,1.989,2.228,3.314,3.063c1.327,0.976,2.919,1.95,4.51,2.923c1.723,1.115,3.447,2.368,5.038,3.622
		c1.327,1.116,2.52,2.368,3.449,3.899C627.055,71.56,627.452,73.371,627.452,75.321z"/>
	<path fill="#ED2224" d="M620.556,78.524c0,0.141,0,0.141,0,0.279H604.51c0-0.139,0-0.139,0-0.279c0-0.279,0-0.696,0-0.977
		c0.53-4.595,4.508-7.938,8.885-7.381C617.506,70.586,620.556,74.207,620.556,78.524L620.556,78.524z"/>
	<path fill="#010101" d="M664.584,74.486V42.034c-0.663,0.278-1.459,0.418-2.122,0.557c-0.796,0.139-1.591,0.139-2.52,0.139
		c-0.928,0-1.857,0-2.784-0.139v0.976c1.326,0,2.255,0.278,2.651,0.975c0.531,0.696,0.663,1.671,0.663,3.063v6.964h-6.498v0.976
		c1.592,0.138,2.652,0.557,3.051,1.114c0.397,0.557,0.397,1.67-0.132,3.342l-4.908,13.509l-5.304-13.927
		c-0.532-1.254-0.664-2.228-0.532-2.786c0.133-0.557,0.532-0.975,1.062-0.975c0.662-0.14,1.326-0.14,1.99-0.14v-0.974h-12.865v-7.8
		c-0.662,0.278-1.193,0.418-1.857,0.418c-0.662,0.139-1.458,0.139-2.122,0.139v7.103h-4.244v0.976h4.244v15.738
		c0,1.392,0.132,2.646,0.398,4.039c0.266,0.974,0.664,1.811,1.326,2.507c0.531,0.556,1.061,0.837,1.725,1.113
		c0.795,0.278,1.591,0.418,2.519,0.418c1.856,0,3.184-0.556,3.978-1.812c0.929-1.391,1.591-2.923,1.724-4.595l-0.928-0.279
		c-0.53,1.813-1.061,3.064-1.724,3.898c-0.531,0.697-1.459,1.116-2.255,1.116c-0.795,0-1.59-0.279-2.121-0.837
		c-0.531-0.557-0.796-1.67-0.796-3.063V55.683h2.917c0.532,0,0.929,0.14,1.326,0.418c0.531,0.279,1.063,0.974,1.724,2.228
		l8.089,20.475l-1.59,4.315c-0.531,1.254-1.061,2.229-1.591,2.786c-0.531,0.559-1.327,0.836-2.122,0.836h-0.132h-0.133
		c0.397-0.139,0.664-0.418,0.797-0.836c0.263-0.416,0.396-0.836,0.396-1.253c0-0.697-0.264-1.254-0.662-1.672
		c-0.397-0.418-1.061-0.558-1.591-0.558c-0.664,0-1.328,0.14-1.726,0.696c-0.396,0.557-0.662,1.114-0.662,1.811
		c0,1.116,0.531,2.089,1.458,2.507c0.53,0.279,1.062,0.279,1.591,0.279c0.663,0,1.195-0.141,1.724-0.279
		c0.664-0.139,1.194-0.557,1.725-0.973c0.663-0.698,1.326-1.812,1.856-3.345l1.459-4.038l7.294-20.194
		c0.397-1.254,0.796-1.95,1.326-2.507c0.265-0.279,0.531-0.419,0.795-0.558v18.664c0,1.252-0.264,2.225-0.795,2.646
		c-0.53,0.416-1.326,0.696-2.652,0.696v0.976c0.531,0,1.326,0,2.255-0.139c1.061,0,2.122-0.141,3.051,0c1.06,0,2.12,0,3.05,0
		c1.06,0,1.724,0.139,2.253,0.139v-0.976c-1.193,0-2.122-0.28-2.651-0.696C664.85,76.711,664.584,75.738,664.584,74.486z"/>
	<path fill="#010101" d="M702.115,72.814c-0.797,1.811-1.726,2.924-2.919,3.62c-1.193,0.697-2.387,1.113-3.715,0.975
		c-1.191,0-2.387-0.417-3.313-1.252c-1.192-0.836-1.989-2.091-2.52-3.483c-0.663-1.671-1.062-3.623-0.929-5.432
		c0-0.557,0-1.113,0-1.672c0-0.418,0-0.836,0.133-1.252h13.923c0-3.482-0.794-6.128-2.252-7.8c-1.46-1.67-3.582-2.506-6.102-2.506
		c-1.855,0-3.713,0.557-5.305,1.67c-1.592,1.114-2.784,2.786-3.581,4.597c-0.529,1.113-0.794,2.366-0.926,3.621
		c-0.133-3.343-0.797-5.71-2.256-7.243c-1.46-1.811-3.447-2.646-6.102-2.646c-1.854,0-3.712,0.557-5.303,1.67
		c-1.592,1.114-2.785,2.786-3.582,4.597c-0.795,1.949-1.325,4.317-1.325,7.102c0,2.229,0.397,4.318,1.193,6.269
		c0.796,1.809,1.99,3.201,3.581,4.317c1.459,0.974,3.314,1.531,5.569,1.531c1.326,0,2.653-0.279,3.979-0.975
		c1.061-0.557,1.989-1.393,2.785-2.367c0.663-0.836,1.193-1.95,1.592-3.065l-0.929-0.418c-0.795,1.813-1.726,2.927-2.919,3.621
		c-1.192,0.697-2.386,1.114-3.71,0.975c-1.195,0-2.388-0.418-3.319-1.254c-1.191-0.834-1.986-2.088-2.519-3.48
		c-0.661-1.67-1.06-3.622-0.928-5.431c0-0.559,0-1.116,0-1.673c0-0.419,0-0.835,0.133-1.252h13.926
		c-0.134,0.973-0.134,1.95-0.134,3.063c0,2.229,0.398,4.317,1.192,6.268c0.797,1.812,1.989,3.201,3.581,4.318
		c1.459,0.976,3.316,1.531,5.571,1.531c1.324,0,2.65-0.278,3.978-0.976c1.06-0.556,1.99-1.392,2.786-2.368
		c0.663-0.834,1.193-1.949,1.59-3.063L702.115,72.814z M680.365,63.482h-9.813c0.266-2.924,0.795-5.013,1.857-6.407
		c1.061-1.393,2.254-2.088,3.58-2.088c0.927,0,1.855,0.417,2.52,1.114c0.663,0.974,1.193,1.949,1.459,3.064
		C680.365,60.558,680.365,61.952,680.365,63.482L680.365,63.482z M690.709,57.075c1.062-1.393,2.254-2.088,3.581-2.088
		c0.929,0,1.856,0.417,2.52,1.114c0.663,0.974,1.193,1.949,1.459,3.064c0.264,1.393,0.397,2.787,0.397,4.317h-9.681
		C688.985,60.558,689.648,58.469,690.709,57.075L690.709,57.075z"/>
	<path fill="#010101" d="M731.289,72.674c-0.531,1.813-1.06,3.064-1.724,3.898c-0.531,0.697-1.46,1.116-2.255,1.116
		c-0.796,0-1.591-0.279-2.123-0.837c-0.53-0.557-0.796-1.67-0.796-3.063V55.683h6.633v-0.974h-6.633v-7.8
		c-0.66,0.278-1.192,0.418-1.854,0.418c-0.662,0.139-1.459,0.139-2.121,0.139v7.103h-3.052c0-0.278,0-0.418,0-0.696h-1.06
		c-0.267,1.95-0.797,2.507-1.726,1.672c-0.53-0.418-1.193-0.836-1.857-1.114c-0.927-0.418-1.989-0.697-3.049-0.558
		c-1.06,0-2.255,0.14-3.315,0.696c-0.928,0.418-1.855,1.114-2.387,1.949c-0.663,0.836-0.929,2.09-0.929,3.482
		c0,1.114,0.266,2.366,0.797,3.343c0.663,0.975,1.457,1.809,2.254,2.365c0.927,0.697,1.989,1.396,3.049,2.09
		c1.327,0.837,2.521,1.812,3.58,2.787c0.93,0.836,1.461,2.088,1.461,3.342c0,1.673-0.398,2.783-1.327,3.481
		c-0.796,0.559-1.723,0.975-2.651,0.975c-1.458,0-2.652-0.416-3.449-1.114c-0.929-0.835-1.459-1.948-1.856-3.063
		c-0.396-1.533-0.662-3.063-0.928-4.597h-1.061c0,2.367,0,4.317,0,5.711c0,1.39-0.135,2.646-0.135,3.62h1.063
		c0.132-0.836,0.264-1.253,0.53-1.532c0.133-0.277,0.529-0.277,0.795,0l0,0c0.266,0.279,0.662,0.419,0.929,0.696
		c0.265,0.14,0.662,0.419,0.927,0.56c0.532,0.276,1.063,0.416,1.727,0.555c0.663,0.14,1.191,0.14,1.854,0.14
		c1.327,0,2.52-0.278,3.715-0.694c1.06-0.42,2.122-1.256,2.782-2.23c0.798-0.976,1.064-2.368,1.064-3.62
		c0-1.949-0.533-3.482-1.725-4.736c-1.328-1.254-2.786-2.508-4.378-3.481c-1.062-0.696-1.987-1.253-2.784-1.951
		c-0.795-0.556-1.459-1.115-2.122-1.81c-0.529-0.696-0.796-1.532-0.796-2.367c0-1.254,0.397-2.089,1.061-2.646
		c0.797-0.556,1.724-0.975,2.654-0.975c1.325,0,2.388,0.418,3.313,1.113c0.797,0.697,1.458,1.672,1.857,2.647
		c0.397,1.115,0.795,2.228,0.928,3.344h1.061c0-2.091,0-3.623,0-4.876c0-0.557,0-1.114,0-1.531h3.185v15.738
		c0,1.392,0.131,2.646,0.396,4.039c0.266,0.974,0.663,1.811,1.327,2.507c0.529,0.556,1.06,0.837,1.723,1.113
		c0.795,0.278,1.593,0.418,2.52,0.418c1.857,0,3.184-0.556,3.979-1.812c0.929-1.391,1.592-2.923,1.725-4.595L731.289,72.674z"/>
</g>
</svg>
